<?xml version="1.0" encoding="UTF-8"?><!DOCTYPE svg PUBLIC "-//W3C//DTD SVG 1.1//EN" "http://www.w3.org/Graphics/SVG/1.1/DTD/svg11.dtd"><svg xmlns="http://www.w3.org/2000/svg"><symbol id="icon-people" viewBox="0 0 37 26">
    <title>
        Group
    </title>
    <g fill-rule="nonzero">
        <g transform="translate(15 4)">
            <path d="M7 13h8a7 7 0 0 1 7 7v2H0v-2a7 7 0 0 1 7-7z"/>
            <circle cx="11.5" cy="5.5" r="5.5"/>
        </g>
        <g>
            <path d="M7 13h13a7 7 0 0 1 7 7v2H0v-2a7 7 0 0 1 7-7z"/>
            <ellipse cx="14" cy="5.5" rx="7" ry="5.5"/>
        </g>
    </g>
</symbol><symbol id="icon-phone" viewBox="0 0 25 28">
    <title>
        Devices icon
    </title>
    <g fill-rule="nonzero">
        <g transform="translate(0 3)">
            <rect width="15" height="25" rx="2"/>
            <path d="M2 3h11v19H2z"/>
        </g>
        <g transform="translate(10)">
            <rect width="15" height="25" rx="2"/>
            <path d="M2 3h11v19H2z"/>
        </g>
    </g>
</symbol><symbol id="icon-pin" viewBox="0 0 21 25">
    <title>
        Location icon
    </title>
    <path d="M10.5 25C3.5 19.242 0 14.422 0 10.541 0 4.719 4.701 0 10.5 0S21 4.72 21 10.541c0 3.881-3.5 8.7-10.5 14.459zm-.057-12.903a3.22 3.22 0 0 0 3.213-3.226 3.22 3.22 0 0 0-3.213-3.226A3.22 3.22 0 0 0 7.23 8.871a3.22 3.22 0 0 0 3.213 3.226z" fill-rule="nonzero"/>
</symbol></svg>